<svg xmlns="http://www.w3.org/2000/svg" viewBox="0 0 1024 1024"><defs><style>.cls-1{isolation:isolate;}.cls-2{fill:#b3cd5c;}.cls-3{fill:#44ade9;}.cls-4,.cls-5{fill:#fff;}.cls-5{opacity:0.3;mix-blend-mode:screen;}</style></defs><title>fjc</title><g class="cls-1"><g id="レイヤー_1" data-name="レイヤー 1"><path class="cls-2" d="M720.31,390.22a1396.23,1396.23,0,0,1-152.55-388,513.34,513.34,0,0,0-113.45,0,1396.23,1396.23,0,0,1-152.55,388A1396.23,1396.23,0,0,1,42,716.39a511.38,511.38,0,0,0,56.79,98.19,1404.23,1404.23,0,0,1,824.57,0,511.38,511.38,0,0,0,56.79-98.19A1396.23,1396.23,0,0,1,720.31,390.22Z" transform="translate(0.99 0.99)"/><path class="cls-3" d="M98.76,814.58C192,941,341.92,1023,511,1023S830.1,941,923.33,814.58A1404.23,1404.23,0,0,0,98.76,814.58Z" transform="translate(0.99 0.99)"/><path class="cls-3" d="M567.77,2.23a1396.23,1396.23,0,0,0,152.55,388A1396.23,1396.23,0,0,0,980.12,716.39,510.15,510.15,0,0,0,1023,511C1023,247.48,823.82,30.46,567.77,2.23Z" transform="translate(0.99 0.99)"/><path class="cls-3" d="M301.77,390.22a1396.23,1396.23,0,0,0,152.55-388C198.27,30.46-.92,247.48-0.92,511A510.15,510.15,0,0,0,42,716.39,1396.23,1396.23,0,0,0,301.77,390.22Z" transform="translate(0.99 0.99)"/><path class="cls-4" d="M599.92,309.37l22-95.33-63.2-14.59-22,95.33L498.8,286l22-95.33-63.2-14.59-22,95.33-95.26-22L326.82,308l41.27,9.53c16.64,3.84,23.65,16,19.81,32.62L325.35,621.05c-3.84,16.64-15.46,24.47-32.1,20.63l-40.6-9.37-13.52,58.57,94.6,21.84-22,95.33,63.2,14.59,22-95.33,37.92,8.76-22,95.33L476,845.66,498,750h0l13.52-58.24-41.27-9.36c-16.64-3.84-23.65-15.89-19.81-32.53L476.3,538.08l20.63,4.78c37.94,8.76,48.59,29.46,42.13,57.41l-6,26L588.32,639l46.41-201-55.24-12.75-6,26c-6.45,28-25.09,41.88-63,33.12l-20.63-4.76,29.35-127.13,65.89,15.21c85.2,19.67,119.09,42.92,97,138.76l61.9,14.29,39-169.06Z" transform="translate(0.99 0.99)"/><path class="cls-5" d="M255.06,67.68C91,162.42-.84,334.31-1,511.09c153.17,88.26,347.93,94.71,512,0S766.94,244.42,767.09,67.63C613.92-20.62,419.17-27.07,255.06,67.68Z" transform="translate(0.99 0.99)"/></g></g></svg>