<svg xmlns="http://www.w3.org/2000/svg" xmlns:xlink="http://www.w3.org/1999/xlink" width="24px" height="24px" viewBox="0 0 24 24" version="1.1">
<defs>
<filter id="alpha" filterUnits="objectBoundingBox" x="0%" y="0%" width="100%" height="100%">
  <feColorMatrix type="matrix" in="SourceGraphic" values="0 0 0 0 1 0 0 0 0 1 0 0 0 0 1 0 0 0 1 0"/>
</filter>
<mask id="mask0">
  <g filter="url(#alpha)">
<rect x="0" y="0" width="24" height="24" style="fill:rgb(0%,0%,0%);fill-opacity:0.301961;stroke:none;"/>
  </g>
</mask>
<clipPath id="clip1">
  <rect x="0" y="0" width="24" height="24"/>
</clipPath>
<g id="surface5" clip-path="url(#clip1)">
<path style=" stroke:none;fill-rule:nonzero;fill:rgb(100%,100%,100%);fill-opacity:1;" d="M 6 1.609375 C 2.289062 3.75 0 7.714844 0 12 C 3.710938 14.144531 8.285156 14.144531 12 12 C 15.710938 9.855469 18 5.894531 18 1.609375 C 14.289062 -0.535156 9.710938 -0.535156 6 1.609375 Z M 6 1.609375 "/>
</g>
</defs>
<g id="surface1">
<path style=" stroke:none;fill-rule:nonzero;fill:rgb(70.588235%,80.784314%,36.078431%);fill-opacity:1;" d="M 16.90625 9.167969 C 15.265625 6.332031 14.058594 3.265625 13.328125 0.0703125 C 12.445312 -0.0273438 11.554688 -0.0273438 10.671875 0.0703125 C 9.195312 6.488281 5.828125 12.316406 1.007812 16.800781 C 1.363281 17.613281 1.8125 18.382812 2.335938 19.097656 C 8.632812 17.164062 15.367188 17.164062 21.664062 19.097656 C 22.1875 18.382812 22.636719 17.613281 22.992188 16.800781 C 20.59375 14.574219 18.542969 12.003906 16.90625 9.167969 Z M 16.90625 9.167969 "/>
<path style=" stroke:none;fill-rule:nonzero;fill:rgb(26.666667%,68.235294%,91.764706%);fill-opacity:1;" d="M 2.335938 19.113281 C 4.597656 22.183594 8.1875 23.996094 12 23.996094 C 15.8125 23.996094 19.402344 22.183594 21.664062 19.113281 C 15.367188 17.179688 8.632812 17.179688 2.335938 19.113281 Z M 2.335938 19.113281 "/>
<path style=" stroke:none;fill-rule:nonzero;fill:rgb(26.666667%,68.235294%,91.764706%);fill-opacity:1;" d="M 13.328125 0.078125 C 14.808594 6.492188 18.175781 12.316406 22.996094 16.800781 C 24.519531 13.304688 24.292969 9.296875 22.386719 5.996094 C 20.480469 2.699219 17.117188 0.5 13.328125 0.078125 Z M 13.328125 0.078125 "/>
<path style=" stroke:none;fill-rule:nonzero;fill:rgb(26.666667%,68.235294%,91.764706%);fill-opacity:1;" d="M 7.09375 9.167969 C 8.734375 6.332031 9.941406 3.265625 10.671875 0.0703125 C 6.882812 0.496094 3.519531 2.695312 1.613281 5.996094 C -0.292969 9.296875 -0.515625 13.308594 1.007812 16.800781 C 3.40625 14.574219 5.457031 12.003906 7.09375 9.167969 Z M 7.09375 9.167969 "/>
<path style=" stroke:none;fill-rule:nonzero;fill:rgb(100%,100%,100%);fill-opacity:1;" d="M 14.082031 7.273438 L 14.597656 5.039062 L 13.113281 4.699219 L 12.601562 6.929688 L 11.710938 6.71875 L 12.226562 4.488281 L 10.742188 4.148438 L 10.230469 6.378906 L 7.996094 5.867188 L 7.679688 7.242188 L 8.640625 7.46875 C 8.816406 7.488281 8.96875 7.585938 9.0625 7.734375 C 9.15625 7.882812 9.179688 8.066406 9.121094 8.230469 L 7.65625 14.582031 C 7.636719 14.753906 7.539062 14.910156 7.394531 15 C 7.246094 15.09375 7.066406 15.117188 6.902344 15.0625 L 5.941406 14.839844 L 5.625 16.214844 L 7.84375 16.726562 L 7.328125 18.960938 L 8.8125 19.300781 L 9.328125 17.070312 L 10.214844 17.273438 L 9.699219 19.507812 L 11.183594 19.847656 L 11.699219 17.617188 L 12.015625 16.242188 L 11.054688 16.019531 C 10.878906 16 10.722656 15.898438 10.628906 15.75 C 10.535156 15.601562 10.515625 15.421875 10.574219 15.253906 L 11.179688 12.632812 L 11.660156 12.742188 C 12.546875 12.949219 12.796875 13.433594 12.648438 14.089844 L 12.507812 14.699219 L 13.804688 14.996094 L 14.894531 10.285156 L 13.597656 9.988281 L 13.460938 10.597656 C 13.304688 11.25 12.867188 11.558594 11.980469 11.375 L 11.5 11.265625 L 12.1875 8.285156 L 13.734375 8.640625 C 15.730469 9.121094 16.523438 9.648438 16.003906 11.894531 L 17.441406 12.230469 L 18.359375 8.269531 Z M 14.082031 7.273438 "/>
<use xlink:href="#surface5" mask="url(#mask0)"/>
</g>
</svg>